<svg width="120" height="120" viewBox="0 0 120 120" fill="none" xmlns="http://www.w3.org/2000/svg">
<circle cx="60" cy="60" r="60" fill="#FFF8D9"/>
<path fill-rule="evenodd" clip-rule="evenodd" d="M96.9552 38.6927C98.9654 43.5457 100 48.7471 100 54H60L20 54C20 48.7471 21.0346 43.5457 23.0448 38.6927C25.055 33.8396 28.0014 29.4301 31.7157 25.7157C35.4301 22.0014 39.8396 19.055 44.6927 17.0448C49.5457 15.0346 54.7471 14 60 14C65.2529 14 70.4543 15.0346 75.3073 17.0448C80.1604 19.055 84.5699 22.0014 88.2843 25.7157C91.9986 29.4301 94.945 33.8396 96.9552 38.6927ZM96.9552 86.1845C98.9654 83.2726 100 80.1518 100 77.0001H60L20 77C20 80.1518 21.0346 83.2726 23.0448 86.1845C25.055 89.0963 28.0014 91.742 31.7157 93.9706C35.4301 96.1992 39.8396 97.967 44.6927 99.1732C49.5457 100.379 54.7471 101 60 101C65.2529 101 70.4543 100.379 75.3073 99.1732C80.1604 97.967 84.5699 96.1992 88.2843 93.9706C91.9986 91.742 94.945 89.0963 96.9552 86.1845ZM17 62.0001H104V63.0001H17V62.0001ZM104 70.0001H17V69.0001H104V70.0001Z" fill="#BB371A"/>
<path d="M100 54V55.5C100.828 55.5 101.5 54.8284 101.5 54H100ZM60 54L60 52.5L60 52.5L60 54ZM20 54L18.5 54C18.5 54.3978 18.658 54.7794 18.9393 55.0607C19.2206 55.342 19.6022 55.5 20 55.5L20 54ZM31.7157 25.7157L30.6551 24.6551L30.6551 24.6551L31.7157 25.7157ZM44.6927 17.0448L45.2667 18.4306L45.2667 18.4306L44.6927 17.0448ZM75.3073 17.0448L74.7333 18.4306L74.7333 18.4306L75.3073 17.0448ZM100 77.0001H101.5C101.5 76.1716 100.828 75.5001 100 75.5001V77.0001ZM96.9552 86.1845L98.1896 87.0366L98.1896 87.0366L96.9552 86.1845ZM60 77.0001L60 78.5001H60V77.0001ZM20 77L20 75.5C19.1716 75.5 18.5 76.1716 18.5 77L20 77ZM23.0448 86.1845L21.8104 87.0366L21.8104 87.0366L23.0448 86.1845ZM31.7157 93.9706L32.4875 92.6844L32.4875 92.6844L31.7157 93.9706ZM44.6927 99.1732L44.3309 100.629L44.3309 100.629L44.6927 99.1732ZM75.3073 99.1732L75.6691 100.629L75.6691 100.629L75.3073 99.1732ZM88.2843 93.9706L89.056 95.2569L89.056 95.2569L88.2843 93.9706ZM104 62.0001H105.5C105.5 61.1716 104.828 60.5001 104 60.5001V62.0001ZM17 62.0001V60.5001C16.1716 60.5001 15.5 61.1716 15.5 62.0001H17ZM104 63.0001V64.5001C104.828 64.5001 105.5 63.8285 105.5 63.0001H104ZM17 63.0001H15.5C15.5 63.8285 16.1716 64.5001 17 64.5001V63.0001ZM17 70.0001H15.5C15.5 70.8285 16.1716 71.5001 17 71.5001V70.0001ZM104 70.0001V71.5001C104.828 71.5001 105.5 70.8285 105.5 70.0001H104ZM17 69.0001V67.5001C16.1716 67.5001 15.5 68.1716 15.5 69.0001H17ZM104 69.0001H105.5C105.5 68.1716 104.828 67.5001 104 67.5001V69.0001ZM101.5 54C101.5 48.5501 100.427 43.1537 98.341 38.1186L95.5694 39.2667C97.5042 43.9377 98.5 48.9441 98.5 54H101.5ZM60 55.5H100V52.5H60V55.5ZM20 55.5L60 55.5L60 52.5L20 52.5L20 55.5ZM21.659 38.1186C19.5734 43.1537 18.5 48.5501 18.5 54L21.5 54C21.5 48.9441 22.4958 43.9377 24.4306 39.2667L21.659 38.1186ZM30.6551 24.6551C26.8014 28.5087 23.7446 33.0836 21.659 38.1186L24.4306 39.2667C26.3654 34.5957 29.2013 30.3514 32.7764 26.7764L30.6551 24.6551ZM44.1186 15.659C39.0836 17.7446 34.5087 20.8014 30.6551 24.6551L32.7764 26.7764C36.3514 23.2013 40.5957 20.3654 45.2667 18.4306L44.1186 15.659ZM60 12.5C54.5501 12.5 49.1536 13.5734 44.1186 15.659L45.2667 18.4306C49.9377 16.4958 54.9441 15.5 60 15.5V12.5ZM75.8814 15.659C70.8463 13.5734 65.4499 12.5 60 12.5V15.5C65.0559 15.5 70.0623 16.4958 74.7333 18.4306L75.8814 15.659ZM89.3449 24.6551C85.4913 20.8014 80.9164 17.7446 75.8814 15.659L74.7333 18.4306C79.4043 20.3654 83.6486 23.2013 87.2236 26.7764L89.3449 24.6551ZM98.341 38.1186C96.2554 33.0836 93.1986 28.5087 89.3449 24.6551L87.2236 26.7764C90.7987 30.3514 93.6346 34.5957 95.5694 39.2667L98.341 38.1186ZM98.5 77.0001C98.5 79.8107 97.58 82.6391 95.7208 85.3323L98.1896 87.0366C100.351 83.9062 101.5 80.4928 101.5 77.0001H98.5ZM60 78.5001H100V75.5001H60V78.5001ZM20 78.5L60 78.5001L60 75.5001L20 75.5L20 78.5ZM24.2792 85.3323C22.42 82.639 21.5 79.8107 21.5 77L18.5 77C18.5 80.4928 19.6493 83.9062 21.8104 87.0366L24.2792 85.3323ZM32.4875 92.6844C28.9163 90.5417 26.1438 88.0332 24.2792 85.3323L21.8104 87.0366C23.9662 90.1593 27.0864 92.9423 30.944 95.2569L32.4875 92.6844ZM45.0544 97.7174C40.3239 96.5418 36.0564 94.8257 32.4875 92.6844L30.944 95.2569C34.8037 97.5727 39.3553 99.3923 44.3309 100.629L45.0544 97.7174ZM60 99.5001C54.8629 99.5001 49.7833 98.8927 45.0544 97.7174L44.3309 100.629C49.3081 101.866 54.6313 102.5 60 102.5V99.5001ZM74.9455 97.7174C70.2167 98.8927 65.1371 99.5001 60 99.5001V102.5C65.3687 102.5 70.6919 101.866 75.6691 100.629L74.9455 97.7174ZM87.5125 92.6844C83.9436 94.8257 79.6761 96.5418 74.9455 97.7174L75.6691 100.629C80.6447 99.3923 85.1962 97.5727 89.056 95.2569L87.5125 92.6844ZM95.7208 85.3323C93.8562 88.0332 91.0837 90.5417 87.5125 92.6844L89.056 95.2569C92.9136 92.9423 96.0338 90.1593 98.1896 87.0366L95.7208 85.3323ZM104 60.5001H17V63.5001H104V60.5001ZM105.5 63.0001V62.0001H102.5V63.0001H105.5ZM17 64.5001H104V61.5001H17V64.5001ZM15.5 62.0001V63.0001H18.5V62.0001H15.5ZM17 71.5001H104V68.5001H17V71.5001ZM15.5 69.0001V70.0001H18.5V69.0001H15.5ZM104 67.5001H17V70.5001H104V67.5001ZM105.5 70.0001V69.0001H102.5V70.0001H105.5Z" fill="#BB371A"/>
<path fill-rule="evenodd" clip-rule="evenodd" d="M73.8304 19.4187C74.6588 19.4187 75.3304 20.0903 75.3304 20.9187V22.3105C75.3304 23.1389 74.6588 23.8105 73.8304 23.8105C73.002 23.8105 72.3304 23.1389 72.3304 22.3105V20.9187C72.3304 20.0903 73.002 19.4187 73.8304 19.4187ZM49.0859 23.3046C49.0859 22.4762 48.4143 21.8046 47.5859 21.8046C46.7574 21.8046 46.0859 22.4762 46.0859 23.3046V24.2987C46.0859 25.1271 46.7574 25.7987 47.5859 25.7987C48.4143 25.7987 49.0859 25.1271 49.0859 24.2987V23.3046ZM63.0034 28.6728C63.0034 27.8444 62.3318 27.1728 61.5034 27.1728C60.675 27.1728 60.0034 27.8444 60.0034 28.6728V29.8657C60.0034 30.6942 60.675 31.3657 61.5034 31.3657C62.3318 31.3657 63.0034 30.6942 63.0034 29.8657V28.6728ZM37.4459 32.7398C38.2744 32.7398 38.9459 33.4114 38.9459 34.2398V35.8304C38.9459 36.6588 38.2744 37.3304 37.4459 37.3304C36.6175 37.3304 35.9459 36.6588 35.9459 35.8304V34.2398C35.9459 33.4114 36.6175 32.7398 37.4459 32.7398ZM27.9025 43.8739C28.7309 43.8739 29.4025 44.5454 29.4025 45.3739V46.368C29.4025 47.1964 28.7309 47.868 27.9025 47.868C27.074 47.868 26.4025 47.1964 26.4025 46.368V45.3739C26.4025 44.5454 27.074 43.8739 27.9025 43.8739ZM49.4835 47.5609C49.4835 46.7325 48.8119 46.0609 47.9835 46.0609C47.1551 46.0609 46.4835 46.7325 46.4835 47.5609V49.3503C46.4835 50.1787 47.1551 50.8503 47.9835 50.8503C48.8119 50.8503 49.4835 50.1787 49.4835 49.3503V47.5609ZM84.1691 34.728C84.9976 34.728 85.6691 35.3996 85.6691 36.228V37.421C85.6691 38.2494 84.9976 38.921 84.1691 38.921C83.3407 38.921 82.6691 38.2494 82.6691 37.421V36.228C82.6691 35.3996 83.3407 34.728 84.1691 34.728ZM69.2575 42.8797C70.0859 42.8797 70.7575 43.5513 70.7575 44.3797V45.9703C70.7575 46.7987 70.0859 47.4703 69.2575 47.4703C68.4291 47.4703 67.7575 46.7987 67.7575 45.9703V44.3797C67.7575 43.5513 68.4291 42.8797 69.2575 42.8797ZM90.242 49.3503C90.242 48.5219 89.5705 47.8503 88.742 47.8503C87.9136 47.8503 87.242 48.5219 87.242 49.3503V50.5432C87.242 51.3717 87.9136 52.0432 88.742 52.0432C89.5705 52.0432 90.242 51.3717 90.242 50.5432V49.3503Z" fill="#FFF8D9"/>
</svg>
