<svg width="80" height="80" viewBox="0 0 80 80" fill="none" xmlns="http://www.w3.org/2000/svg">
<circle cx="40" cy="40" r="40" fill="#FFF8D9"/>
<path fill-rule="evenodd" clip-rule="evenodd" d="M64.6368 25.7951C65.9769 29.0305 66.6667 32.4981 66.6667 36H40L13.3333 36C13.3333 32.4981 14.0231 29.0305 15.3632 25.7951C16.7033 22.5598 18.6676 19.62 21.1438 17.1438C23.6201 14.6676 26.5598 12.7033 29.7951 11.3632C33.0305 10.0231 36.4981 9.33333 40 9.33333C43.5019 9.33333 46.9696 10.0231 50.2049 11.3632C53.4403 12.7033 56.38 14.6676 58.8562 17.1438C61.3324 19.62 63.2967 22.5598 64.6368 25.7951ZM64.6368 57.4563C65.9769 55.5151 66.6667 53.4345 66.6667 51.3334H40H13.3333C13.3333 53.4345 14.0231 55.5151 15.3632 57.4563C16.7033 59.3975 18.6676 61.1613 21.1438 62.6471C23.6201 64.1328 26.5598 65.3114 29.7951 66.1154C33.0305 66.9195 36.4981 67.3334 40 67.3334C43.5019 67.3334 46.9696 66.9195 50.2049 66.1154C53.4403 65.3114 56.38 64.1328 58.8562 62.6471C61.3324 61.1613 63.2967 59.3975 64.6368 57.4563ZM11.3333 41.3334H69.3333V42H11.3333V41.3334ZM69.3333 46.6667H11.3333V46H69.3333V46.6667Z" fill="#BB371A"/>
<path d="M66.6667 36V37.5C67.4951 37.5 68.1667 36.8284 68.1667 36H66.6667ZM64.6368 25.7951L66.0226 25.2211L66.0226 25.2211L64.6368 25.7951ZM40 36L40 34.5H40L40 36ZM13.3333 36L11.8333 36C11.8333 36.3978 11.9914 36.7794 12.2727 37.0607C12.554 37.342 12.9355 37.5 13.3333 37.5L13.3333 36ZM15.3632 25.7951L13.9774 25.2211L13.9774 25.2211L15.3632 25.7951ZM21.1438 17.1438L20.0832 16.0832L20.0832 16.0832L21.1438 17.1438ZM29.7951 11.3632L29.2211 9.97739L29.2211 9.97739L29.7951 11.3632ZM50.2049 11.3632L50.7789 9.97739L50.7789 9.97739L50.2049 11.3632ZM58.8562 17.1438L59.9169 16.0832L59.9169 16.0832L58.8562 17.1438ZM66.6667 51.3334H68.1667C68.1667 50.5049 67.4951 49.8334 66.6667 49.8334V51.3334ZM64.6368 57.4563L65.8712 58.3085L65.8712 58.3085L64.6368 57.4563ZM13.3333 51.3334V49.8334C12.5049 49.8334 11.8333 50.5049 11.8333 51.3334L13.3333 51.3334ZM15.3632 57.4563L16.5976 56.6041L16.5976 56.6041L15.3632 57.4563ZM21.1438 62.6471L20.3721 63.9333L20.3721 63.9333L21.1438 62.6471ZM29.7951 66.1154L29.4333 67.5712L29.4333 67.5712L29.7951 66.1154ZM50.2049 66.1154L50.5667 67.5712L50.5667 67.5712L50.2049 66.1154ZM58.8562 62.6471L59.6279 63.9333L59.6279 63.9333L58.8562 62.6471ZM69.3333 41.3334H70.8333C70.8333 40.5049 70.1618 39.8334 69.3333 39.8334V41.3334ZM11.3333 41.3334V39.8334C10.5049 39.8334 9.83334 40.5049 9.83334 41.3334H11.3333ZM69.3333 42V43.5C70.1618 43.5 70.8333 42.8285 70.8333 42H69.3333ZM11.3333 42H9.83334C9.83334 42.8285 10.5049 43.5 11.3333 43.5V42ZM11.3333 46.6667H9.83334C9.83334 47.4951 10.5049 48.1667 11.3333 48.1667V46.6667ZM69.3333 46.6667V48.1667C70.1618 48.1667 70.8333 47.4951 70.8333 46.6667H69.3333ZM11.3333 46V44.5C10.5049 44.5 9.83334 45.1716 9.83334 46H11.3333ZM69.3333 46H70.8333C70.8333 45.1716 70.1618 44.5 69.3333 44.5V46ZM68.1667 36C68.1667 32.3011 67.4381 28.6384 66.0226 25.2211L63.251 26.3691C64.5157 29.4225 65.1667 32.6951 65.1667 36H68.1667ZM40 37.5H66.6667V34.5H40V37.5ZM13.3333 37.5L40 37.5L40 34.5L13.3333 34.5L13.3333 37.5ZM13.9774 25.2211C12.5619 28.6384 11.8333 32.3011 11.8333 36L14.8333 36C14.8333 32.6951 15.4843 29.4225 16.749 26.3691L13.9774 25.2211ZM20.0832 16.0832C17.4677 18.6987 15.3929 21.8037 13.9774 25.2211L16.749 26.3691C18.0138 23.3158 19.8675 20.5414 22.2045 18.2045L20.0832 16.0832ZM29.2211 9.97739C25.8038 11.3929 22.6987 13.4676 20.0832 16.0832L22.2045 18.2045C24.5414 15.8675 27.3158 14.0138 30.3691 12.749L29.2211 9.97739ZM40 7.83333C36.3011 7.83333 32.6384 8.56188 29.2211 9.97739L30.3691 12.749C33.4225 11.4843 36.6951 10.8333 40 10.8333V7.83333ZM50.7789 9.97739C47.3616 8.56188 43.6989 7.83333 40 7.83333V10.8333C43.3049 10.8333 46.5775 11.4843 49.6309 12.749L50.7789 9.97739ZM59.9169 16.0832C57.3013 13.4676 54.1963 11.3929 50.7789 9.97739L49.6309 12.749C52.6842 14.0138 55.4586 15.8675 57.7955 18.2045L59.9169 16.0832ZM66.0226 25.2211C64.6071 21.8037 62.5324 18.6987 59.9169 16.0832L57.7955 18.2045C60.1325 20.5414 61.9862 23.3158 63.251 26.3691L66.0226 25.2211ZM65.1667 51.3334C65.1667 53.0935 64.5916 54.8815 63.4024 56.6041L65.8712 58.3085C67.3622 56.1487 68.1667 53.7756 68.1667 51.3334H65.1667ZM40 52.8334H66.6667V49.8334H40V52.8334ZM13.3333 52.8334H40V49.8334H13.3333V52.8334ZM16.5976 56.6041C15.4084 54.8815 14.8333 53.0934 14.8333 51.3334L11.8333 51.3334C11.8333 53.7756 12.6378 56.1487 14.1288 58.3085L16.5976 56.6041ZM21.9156 61.3608C19.5826 59.961 17.7922 58.3344 16.5976 56.6041L14.1288 58.3085C15.6145 60.4606 17.7526 62.3616 20.3721 63.9333L21.9156 61.3608ZM30.1569 64.6597C27.0441 63.8861 24.2464 62.7593 21.9156 61.3608L20.3721 63.9333C22.9937 65.5063 26.0755 66.7366 29.4333 67.5712L30.1569 64.6597ZM40 65.8334C36.6139 65.8334 33.2681 65.4329 30.1569 64.6597L29.4333 67.5712C32.7928 68.4061 36.3823 68.8334 40 68.8334V65.8334ZM49.8431 64.6597C46.7319 65.4329 43.3861 65.8334 40 65.8334V68.8334C43.6177 68.8334 47.2072 68.4061 50.5667 67.5712L49.8431 64.6597ZM58.0845 61.3608C55.7536 62.7593 52.956 63.8861 49.8431 64.6597L50.5667 67.5712C53.9245 66.7366 57.0063 65.5063 59.6279 63.9333L58.0845 61.3608ZM63.4024 56.6041C62.2078 58.3344 60.4175 59.961 58.0844 61.3608L59.6279 63.9333C62.2474 62.3616 64.3855 60.4606 65.8712 58.3085L63.4024 56.6041ZM69.3333 39.8334H11.3333V42.8334H69.3333V39.8334ZM70.8333 42V41.3334H67.8333V42H70.8333ZM11.3333 43.5H69.3333V40.5H11.3333V43.5ZM9.83334 41.3334V42H12.8333V41.3334H9.83334ZM11.3333 48.1667H69.3333V45.1667H11.3333V48.1667ZM9.83334 46V46.6667H12.8333V46H9.83334ZM69.3333 44.5H11.3333V47.5H69.3333V44.5ZM70.8333 46.6667V46H67.8333V46.6667H70.8333Z" fill="#BB371A"/>
<path fill-rule="evenodd" clip-rule="evenodd" d="M49.2203 12.4458C50.0487 12.4458 50.7203 13.1174 50.7203 13.9458V14.8737C50.7203 15.7021 50.0487 16.3737 49.2203 16.3737C48.3918 16.3737 47.7203 15.7021 47.7203 14.8737V13.9458C47.7203 13.1174 48.3918 12.4458 49.2203 12.4458ZM33.2239 15.5364C33.2239 14.708 32.5523 14.0364 31.7239 14.0364C30.8955 14.0364 30.2239 14.708 30.2239 15.5364V16.1991C30.2239 17.0276 30.8955 17.6991 31.7239 17.6991C32.5523 17.6991 33.2239 17.0276 33.2239 16.1991V15.5364ZM42.5023 19.1152C42.5023 18.2868 41.8307 17.6152 41.0023 17.6152C40.1739 17.6152 39.5023 18.2868 39.5023 19.1152V19.9105C39.5023 20.7389 40.1739 21.4105 41.0023 21.4105C41.8307 21.4105 42.5023 20.7389 42.5023 19.9105V19.1152ZM24.964 21.3265C25.7924 21.3265 26.464 21.9981 26.464 22.8265V23.8869C26.464 24.7154 25.7924 25.3869 24.964 25.3869C24.1355 25.3869 23.464 24.7154 23.464 23.8869V22.8265C23.464 21.9981 24.1355 21.3265 24.964 21.3265ZM18.6017 28.7492C19.4301 28.7492 20.1017 29.4208 20.1017 30.2492V30.912C20.1017 31.7404 19.4301 32.412 18.6017 32.412C17.7732 32.412 17.1017 31.7404 17.1017 30.912V30.2492C17.1017 29.4208 17.7732 28.7492 18.6017 28.7492ZM33.489 31.7073C33.489 30.8788 32.8174 30.2073 31.989 30.2073C31.1606 30.2073 30.489 30.8788 30.489 31.7073V32.9002C30.489 33.7286 31.1606 34.4002 31.989 34.4002C32.8174 34.4002 33.489 33.7286 33.489 32.9002V31.7073ZM56.1128 22.652C56.9412 22.652 57.6128 23.3236 57.6128 24.152V24.9473C57.6128 25.7757 56.9412 26.4473 56.1128 26.4473C55.2843 26.4473 54.6128 25.7757 54.6128 24.9473V24.152C54.6128 23.3236 55.2843 22.652 56.1128 22.652ZM46.1717 28.0865C47.0001 28.0865 47.6717 28.7581 47.6717 29.5865V30.6469C47.6717 31.4753 47.0001 32.1469 46.1717 32.1469C45.3432 32.1469 44.6717 31.4753 44.6717 30.6469V29.5865C44.6717 28.7581 45.3432 28.0865 46.1717 28.0865ZM60.6614 32.9002C60.6614 32.0718 59.9898 31.4002 59.1614 31.4002C58.3329 31.4002 57.6614 32.0718 57.6614 32.9002V33.6955C57.6614 34.5239 58.3329 35.1955 59.1614 35.1955C59.9898 35.1955 60.6614 34.5239 60.6614 33.6955V32.9002Z" fill="#FFF8D9"/>
</svg>
